<?xml version="1.0" encoding="utf-8"?>
<!-- Generator: Adobe Illustrator 22.1.0, SVG Export Plug-In . SVG Version: 6.00 Build 0)  -->
<svg version="1.1" id="Layer_1" xmlns="http://www.w3.org/2000/svg" xmlns:xlink="http://www.w3.org/1999/xlink" x="0px" y="0px"
	 viewBox="0 0 300 300" style="enable-background:new 0 0 300 300;" xml:space="preserve">
<style type="text/css">
	.st0{fill:#FFFA5D;}
	.st1{fill:#928AFF;}
	.st2{fill:#282828;}
	.st3{fill:#EAE02A;}
</style>
<title>Minions</title>
<path class="st0" d="M68,184.1v-77.6C68,63.3,104.9,28,150,28l0,0c45.1,0,82,35.3,82,78.6v77.6L151,210L68,184.1z"/>
<path class="st1" d="M232,180c0,7.7-36.7,14-82,14c-45.3,0-82-6.3-82-14c0,24,18.3,44.4,44,52.4V261h17v-25.3c2.3,0.2,4.6,0.3,7,0.3
	h28c0.7,0,1.3,0,2,0v25h17v-27.2C211.3,227,232,205.5,232,180z"/>
<path class="st2" d="M113.7,255h15.8c3.9,0,7,3.1,7,7v3c0,3.9-3.1,7-7,7h-13c-3.9,0-7-3.1-7-7v-5.8C109.5,256.9,111.4,255,113.7,255
	L113.7,255z"/>
<path class="st2" d="M167.7,255h15.8c3.9,0,7,3.1,7,7v3c0,3.9-3.1,7-7,7h-13c-3.9,0-7-3.1-7-7v-5.8C163.5,256.9,165.4,255,167.7,255
	L167.7,255z"/>
<path class="st2" d="M142,154H158c3.4,0,6.1,2.7,6.1,6.1v39.8c0,3.4-2.7,6.1-6.1,6.1H142c-3.4,0-6.1-2.7-6.1-6.1v-39.8
	C135.9,156.7,138.6,154,142,154z"/>
<path class="st3" d="M139,193c-41.9,0-76-24.7-76-55c0-2.8,2.2-5,5-5s5,2.2,5,5c0,24.8,29.6,45,66,45c2.8,0,5,2.2,5,5
	S141.8,193,139,193z"/>
<path class="st3" d="M161,193c-2.8,0-5-2.2-5-5s2.2-5,5-5c36.4,0,66-20.2,66-45c0-2.8,2.2-5,5-5s5,2.2,5,5
	C237,168.3,202.9,193,161,193z"/>
<path class="st2" d="M117.5,93h18c3.3,0,6,2.7,6,6l0,0c0,3.3-2.7,6-6,6h-18c-3.3,0-6-2.7-6-6l0,0C111.5,95.7,114.2,93,117.5,93z"/>
<path class="st2" d="M164.5,93h18c3.3,0,6,2.7,6,6l0,0c0,3.3-2.7,6-6,6h-18c-3.3,0-6-2.7-6-6l0,0C158.5,95.7,161.2,93,164.5,93z"/>
<path class="st2" d="M118,124h65c3.3,0,6,2.7,6,6l0,0c0,3.3-2.7,6-6,6h-65c-3.3,0-6-2.7-6-6l0,0C112,126.7,114.7,124,118,124z"/>
<path class="st3" d="M133.6,82.8l-24.2-4.6c-0.8-0.3-1.2-1.2-0.9-2c0,0,0-0.1,0-0.1l0,0c0.3-0.7,1.1-1,1.8-0.8l25.1,2.6
	c0.8,0.2,1.3,1.1,1.1,1.9c0,0.1-0.1,0.2-0.1,0.2l-1,2C135.2,82.7,134.4,83.1,133.6,82.8z"/>
<path class="st3" d="M168.3,82.7l24.2-4.4c0.8-0.3,1.2-1.2,0.9-2c0,0,0-0.1,0-0.1l0,0c-0.3-0.7-1.1-1-1.8-0.8l-25.2,2.4
	c-0.8,0.2-1.3,1-1.1,1.9c0,0.1,0.1,0.2,0.1,0.2l0.9,2C166.7,82.6,167.6,83,168.3,82.7z"/>
</svg>
