<?xml version="1.0" encoding="utf-8"?>
<!-- Generator: Adobe Illustrator 22.1.0, SVG Export Plug-In . SVG Version: 6.00 Build 0)  -->
<svg version="1.1" id="Layer_1" xmlns="http://www.w3.org/2000/svg" xmlns:xlink="http://www.w3.org/1999/xlink" x="0px" y="0px"
	 viewBox="0 0 300 300" style="enable-background:new 0 0 300 300;" xml:space="preserve">
<style type="text/css">
	.st0{fill:#FFFA5D;}
	.st1{fill:#928AFF;}
	.st2{fill:#282828;}
	.st3{fill:#EAE02A;}
</style>
<title>Minions</title>
<path class="st0" d="M68,184.1v-77.6C68,63.3,104.9,28,150,28l0,0c45.1,0,82,35.3,82,78.6v77.6L151,210L68,184.1z"/>
<path class="st1" d="M232,180c0,7.7-36.7,14-82,14c-45.3,0-82-6.3-82-14c0,24,18.3,44.4,44,52.4V261h17v-25.3c2.3,0.2,4.6,0.3,7,0.3
	h28c0.7,0,1.3,0,2,0v25h17v-27.2C211.3,227,232,205.5,232,180z"/>
<path class="st2" d="M113.7,255h15.8c3.9,0,7,3.1,7,7v3c0,3.9-3.1,7-7,7h-13c-3.9,0-7-3.1-7-7v-5.8C109.5,256.9,111.4,255,113.7,255
	L113.7,255z"/>
<path class="st2" d="M167.7,255h15.8c3.9,0,7,3.1,7,7v3c0,3.9-3.1,7-7,7h-13c-3.9,0-7-3.1-7-7v-5.8C163.5,256.9,165.4,255,167.7,255
	L167.7,255z"/>
<path class="st2" d="M142,154H158c3.4,0,6.1,2.7,6.1,6.1v39.8c0,3.4-2.7,6.1-6.1,6.1H142c-3.4,0-6.1-2.7-6.1-6.1v-39.8
	C135.9,156.7,138.6,154,142,154z"/>
<path class="st3" d="M139,193c-41.9,0-76-24.7-76-55c0-2.8,2.2-5,5-5s5,2.2,5,5c0,24.8,29.6,45,66,45c2.8,0,5,2.2,5,5
	S141.8,193,139,193z"/>
<path class="st3" d="M161,193c-2.8,0-5-2.2-5-5s2.2-5,5-5c36.4,0,66-20.2,66-45c0-2.8,2.2-5,5-5s5,2.2,5,5
	C237,168.3,202.9,193,161,193z"/>
<path class="st2" d="M123.8,91.1L123.8,91.1c4.3,0,7.8,3.5,7.8,7.8v0c0,4.3-3.5,7.8-7.8,7.8l0,0c-4.3,0-7.8-3.5-7.8-7.8v0
	C116,94.6,119.5,91.1,123.8,91.1z"/>
<path class="st2" d="M177.2,91.1L177.2,91.1c4.3,0,7.8,3.5,7.8,7.8v0c0,4.3-3.5,7.8-7.8,7.8l0,0c-4.3,0-7.8-3.5-7.8-7.8v0
	C169.3,94.6,172.8,91.1,177.2,91.1z"/>
<path class="st2" d="M150,145.4c-12.8,0-25.7-4.9-35.5-14.7c-2.3-2.3-2.3-6.1,0-8.5c2.3-2.3,6.1-2.3,8.5,0c14.9,14.9,39.1,14.9,54,0
	c2.3-2.3,6.1-2.3,8.5,0c2.3,2.3,2.3,6.1,0,8.5C175.7,140.5,162.8,145.4,150,145.4z"/>
<path class="st3" d="M131.4,76.2l-24.6,1c-0.8-0.1-1.4-0.9-1.3-1.7c0,0,0-0.1,0-0.1l0,0c0.2-0.7,0.8-1.2,1.6-1.2l25.1-3.2
	c0.8,0,1.5,0.8,1.4,1.6c0,0.1,0,0.2,0,0.2l-0.5,2.2C132.9,75.8,132.2,76.3,131.4,76.2z"/>
<path class="st3" d="M164.5,75.8l24.6,1.8c0.8-0.1,1.4-0.8,1.4-1.7c0,0,0-0.1,0-0.1l0,0c-0.1-0.7-0.8-1.3-1.5-1.2l-25-4
	c-0.8,0-1.5,0.7-1.5,1.5c0,0.1,0,0.2,0,0.2l0.4,2.2C163,75.3,163.7,75.9,164.5,75.8z"/>
</svg>
