<?xml version="1.0" encoding="utf-8"?>
<!-- Generator: Adobe Illustrator 22.1.0, SVG Export Plug-In . SVG Version: 6.00 Build 0)  -->
<svg version="1.1" id="Layer_1" xmlns="http://www.w3.org/2000/svg" xmlns:xlink="http://www.w3.org/1999/xlink" x="0px" y="0px"
	 viewBox="0 0 300 300" style="enable-background:new 0 0 300 300;" xml:space="preserve">
<style type="text/css">
	.st0{fill:#FFFA5D;}
	.st1{fill:#928AFF;}
	.st2{fill:#282828;}
	.st3{fill:#EAE02A;}
	.st4{fill:#61E8E1;}
</style>
<title>Minions</title>
<path class="st0" d="M115.9,68h77.6c43.2,0,78.6,36.9,78.6,82l0,0c0,45.1-35.4,82-78.6,82h-77.6L90,151L115.9,68z"/>
<path class="st1" d="M106,150c0-45.3,6.3-82,14-82c-24,0-44.4,18.3-52.4,44H39v17h25.3c-0.2,2.3-0.3,4.6-0.3,7v28c0,0.7,0,1.3,0,2
	H39v17h27.2c6.8,28.3,28.3,49,53.8,49C112.3,232,106,195.3,106,150z"/>
<path class="st2" d="M45,113.7v15.8c0,3.9-3.1,7-7,7h-3c-3.9,0-7-3.1-7-7v-13c0-3.9,3.1-7,7-7h5.8C43.1,109.5,45,111.4,45,113.7
	L45,113.7z"/>
<path class="st2" d="M45,167.7v15.8c0,3.9-3.1,7-7,7l0,0h-3c-3.9,0-7-3.1-7-7v-13c0-3.9,3.1-7,7-7h5.8C43.1,163.5,45,165.4,45,167.7
	z"/>
<path class="st2" d="M146,142V158c0,3.4-2.7,6.1-6.1,6.1h-39.8c-3.4,0-6.1-2.7-6.1-6.1V142c0-3.4,2.7-6.1,6.1-6.1h39.8
	C143.3,135.9,146,138.6,146,142z"/>
<path class="st3" d="M112,144c-2.8,0-5-2.2-5-5c0-41.9,24.7-76,55-76c2.8,0,5,2.2,5,5s-2.2,5-5,5c-24.8,0-45,29.6-45,66
	C117,141.8,114.8,144,112,144z"/>
<path class="st3" d="M162,237c-30.3,0-55-34.1-55-76c0-2.8,2.2-5,5-5s5,2.2,5,5c0,36.4,20.2,66,45,66c2.8,0,5,2.2,5,5
	S164.8,237,162,237z"/>
<path class="st2" d="M154.6,150c0-13.3,5.3-26.1,14.7-35.5c2.3-2.3,6.1-2.3,8.5,0c2.4,2.3,1.7,5.6,0,8.5c-4.7,8-5.7,16.8-5.7,27
	s1,14,5.7,27c1.1,3.1,2.4,6.1,0,8.5c-2.3,2.3-6.1,2.3-8.5,0C159.8,176.1,154.5,163.3,154.6,150z"/>
<path class="st2" d="M202.5,140.9c-4.9,0-9.4-3-12.9-8.3c-0.8-1.5-0.8-3.3,0-4.8c0.9-1.3,2.1-1,3.1,0c2.9,2.7,6.1,3.2,9.8,3.2
	s5.1-0.6,9.8-3.2c1.1-0.6,2.2-1.3,3.1,0c0.8,1.5,0.8,3.3,0,4.8C211.9,138,207.4,140.9,202.5,140.9z"/>
<path class="st2" d="M202.5,160.1c4.9,0,9.4,3,12.9,8.3c0.8,1.5,0.8,3.3,0,4.8c-0.9,1.3-2,1-3.1,0c-2.9-2.7-6.1-3.2-9.8-3.2
	s-5.1,0.6-9.8,3.2c-1.1,0.6-2.2,1.3-3.1,0c-0.8-1.5-0.8-3.3,0-4.8C193,163,197.6,160.1,202.5,160.1z"/>
<path class="st4" d="M204.7,107.5c-2.8-2.8-2.5-14.5-5.8-17.8c-3.3-3.3-8.7-3.3-12,0s-3.3,8.7,0,12
	C190.2,105.1,201.9,104.7,204.7,107.5z"/>
<path class="st4" d="M195,75.2c-2.8-2.8-2.5-14.5-5.8-17.8c-3.3-3.3-8.7-3.3-12,0s-3.3,8.7,0,12C180.5,72.8,192.2,72.4,195,75.2z"/>
<path class="st4" d="M204.7,200c-2.8,2.8-2.5,14.5-5.8,17.8c-3.3,3.3-8.7,3.3-12,0s-3.3-8.7,0-12C190.2,202.5,201.9,202.8,204.7,200
	z"/>
<path class="st4" d="M195,232.3c-2.8,2.8-2.5,14.5-5.8,17.8c-3.3,3.3-8.7,3.3-12,0s-3.3-8.7,0-12C180.5,234.8,192.2,235.1,195,232.3
	z"/>
<path class="st3" d="M228.4,138.6l-6.1-23.8c-0.1-0.8,0.6-1.6,1.4-1.6c0,0,0.1,0,0.1,0l0,0c0.7,0,1.4,0.5,1.5,1.3l8.3,23.9
	c0.1,0.8-0.4,1.6-1.3,1.7c-0.1,0-0.2,0-0.2,0h-2.2C229.1,140,228.5,139.4,228.4,138.6z"/>
<path class="st3" d="M228.4,158.4l-6.1,23.9c-0.1,0.8,0.6,1.6,1.4,1.6c0,0,0.1,0,0.1,0l0,0c0.7,0,1.4-0.5,1.5-1.3l8.3-23.9
	c0.1-0.8-0.4-1.6-1.3-1.7c-0.1,0-0.2,0-0.2,0h-2.2C229.1,157,228.5,157.6,228.4,158.4z"/>
</svg>
